<svg xmlns="http://www.w3.org/2000/svg" viewBox="0 0 1400 1400">
<g id="mark"><rect x="420" y="98" width="560" height="560" rx="123.2" fill="#ffffff" fill-opacity=".10" stroke="#ffffff" stroke-width="14.0"/><path d="M 823.2 238.0 L 593.6 366.8" stroke="#ffffff" stroke-width="81.2" stroke-linecap="round"/><path d="M 576.8 523.6 L 806.4 394.8" stroke="#5aa0ff" stroke-width="81.2" stroke-linecap="round"/></g>
<g><path d="M585.443359375 980.0V883.28515625Q585.443359375 873.93359375 580.2138671875 869.134765625Q574.984375 864.3359375 564.89453125 864.3359375H521.212890625V831.8515625H568.216796875Q595.90234375 831.8515625 611.5908203125 846.001953125Q627.279296875 860.15234375 627.279296875 885.25390625V980.0Z" fill="#ffffff"/><path d="M671.822265625 916.75390625V864.3359375H649.3046875V831.8515625H713.53515625V916.75390625Z" fill="#ffffff"/><path d="M747.619140625 980.0V947.515625H812.46484375L734.576171875 831.8515625H781.2109375L819.478515625 893.990234375L866.11328125 961.419921875V980.0ZM828.583984375 926.10546875 802.990234375 892.8828125 830.060546875 831.8515625H876.818359375Z" fill="#ffffff"/></g>
<g><path d="M441.958740234375 1190.0V1177.86962890625H456.088623046875Q460.843017578125 1177.86962890625 464.086669921875 1175.73681640625Q467.330322265625 1173.60400390625 468.99658203125 1169.3828125Q470.662841796875 1165.16162109375 470.662841796875 1158.94091796875V1156.3193359375Q470.662841796875 1150.05419921875 468.99658203125 1145.87744140625Q467.330322265625 1141.70068359375 464.086669921875 1139.590087890625Q460.843017578125 1137.4794921875 456.044189453125 1137.4794921875H441.692138671875V1125.3046875H456.044189453125Q464.842041015625 1125.3046875 471.57373046875 1129.237060546875Q478.305419921875 1133.16943359375 482.126708984375 1140.167724609375Q485.947998046875 1147.166015625 485.947998046875 1156.408203125V1158.94091796875Q485.947998046875 1168.138671875 482.126708984375 1175.136962890625Q478.305419921875 1182.13525390625 471.595947265625 1186.067626953125Q464.886474609375 1190.0 456.088623046875 1190.0ZM450.623291015625 1190.0H435.515869140625V1125.3046875H450.623291015625Z" fill="#5aa0ff"/><path d="M556.690673828125 1190.0H522.521240234375V1177.86962890625H556.690673828125ZM527.586669921875 1190.0H512.479248046875V1125.3046875H527.586669921875ZM552.247314453125 1162.62890625H522.521240234375V1150.8984375H552.247314453125ZM556.690673828125 1137.4794921875H522.521240234375V1125.3046875H556.690673828125Z" fill="#5aa0ff"/><path d="M624.011962890625 1190.0H591.531005859375V1177.86962890625H624.011962890625ZM596.552001953125 1190.0H581.489013671875V1125.3046875H596.552001953125Z" fill="#5aa0ff"/><path d="M664.850830078125 1190.0H649.832275390625V1125.3046875H664.850830078125Z" fill="#5aa0ff"/><path d="M732.260986328125 1125.3046875H749.056884765625L727.017822265625 1190.0H716.042724609375L718.175537109375 1174.71484375ZM719.641845703125 1174.71484375 721.952392578125 1190.0H710.888427734375L688.938232421875 1125.3046875H705.689697265625Z" fill="#5aa0ff"/><path d="M816.378173828125 1190.0H782.208740234375V1177.86962890625H816.378173828125ZM787.274169921875 1190.0H772.166748046875V1125.3046875H787.274169921875ZM811.934814453125 1162.62890625H782.208740234375V1150.8984375H811.934814453125ZM816.378173828125 1137.4794921875H782.208740234375V1125.3046875H816.378173828125Z" fill="#5aa0ff"/><path d="M866.192626953125 1125.3046875Q873.746337890625 1125.3046875 879.189453125 1127.548583984375Q884.632568359375 1129.79248046875 887.58740234375 1134.14697265625Q890.542236328125 1138.50146484375 890.542236328125 1144.89990234375Q890.542236328125 1150.40966796875 888.809326171875 1154.14208984375Q887.076416015625 1157.87451171875 883.966064453125 1160.296142578125Q880.855712890625 1162.7177734375 876.634521484375 1164.3173828125L871.791259765625 1167.1611328125H850.907470703125V1154.986328125H866.103759765625Q869.214111328125 1154.986328125 871.302490234375 1153.96435546875Q873.390869140625 1152.9423828125 874.43505859375 1150.9873046875Q875.479248046875 1149.0322265625 875.479248046875 1146.27734375Q875.479248046875 1142.189453125 873.168701171875 1139.83447265625Q870.858154296875 1137.4794921875 866.192626953125 1137.4794921875H856.283935546875V1190.0H841.220947265625V1125.3046875ZM862.282470703125 1161.25146484375H878.234130859375L892.808349609375 1189.33349609375V1190.0H876.678955078125Z" fill="#5aa0ff"/><path d="M941.200927734375 1153.208984375 953.375732421875 1125.3046875H969.727294921875L948.843505859375 1166.76123046875V1190.0H933.558349609375V1166.76123046875L912.630126953125 1125.3046875H928.981689453125Z" fill="#5aa0ff"/></g>
</svg>